<svg version="1.1" id="Layer_1" xmlns="http://www.w3.org/2000/svg" xmlns:xlink="http://www.w3.org/1999/xlink"
            x="0px" y="0px" width="841.889px" height="595.281px" viewBox="0 0 841.889 595.281"
            enable-background="new 0 0 841.889 595.281" xml:space="preserve" class="v-icon__component theme--light"
            style="font-size: 50px; height: 50px; width: 50px;">
            <title>participacion</title>
            <path fill="#FFFFFF"
                d="M508.832,212.347c-2.05-2.229-4.488-4.068-7.195-5.427c-2.793-1.033-5.824-1.238-8.73-0.59
                c-1.705,0.26-3.37,0.735-4.955,1.416c-10.957,5.935-20.277,14.485-27.133,24.892c-4.26,6.344-10.35,11.24-17.46,14.038V116.909
                c1.236-5.799-2.462-11.501-8.261-12.737s-11.502,2.462-12.737,8.261c-0.315,1.476-0.315,3.001,0,4.477v70.782
                c0,2.802-2.271,5.073-5.073,5.073s-5.072-2.271-5.072-5.073V97.326c0.751-6.472-3.886-12.327-10.357-13.079
                c-0.048-0.006-0.095-0.011-0.143-0.016c-6.479,0.673-11.188,6.473-10.515,12.953c0.005,0.047,0.011,0.095,0.016,0.142v90.247
                c0,2.802-2.271,5.073-5.072,5.073c-2.802,0-5.073-2.271-5.073-5.073v-80.81c0.771-6.364-3.682-12.18-10.027-13.095
                c-6.48,0.673-11.188,6.473-10.515,12.953c0.005,0.047,0.01,0.095,0.016,0.142v90.365c0,2.802-2.271,5.073-5.073,5.073
                s-5.072-2.271-5.072-5.073v-61.816c0.751-6.472-3.886-12.327-10.357-13.079c-0.048-0.005-0.095-0.011-0.143-0.016
                c-6.48,0.674-11.188,6.473-10.515,12.953c0.005,0.047,0.01,0.095,0.016,0.142v128.234c-1.572,18.48,6.725,36.419,21.824,47.188
                h81.636c11.325-6.8,20.806-16.28,27.605-27.605c2.595-4.837,4.837-9.319,7.078-13.566c6.687-16.377,16.459-31.315,28.785-44.003
                c3.446-2.846,7.115-5.409,10.971-7.668c1.093-0.64,1.863-1.711,2.123-2.949C509.631,214.033,509.414,213.078,508.832,212.347z">
            </path>
            <path fill="#FFFFFF" d="M328.573,348.25h127.645c4.495,0,8.14,3.645,8.14,8.14l0,0v154.66l0,0H320.552l0,0V356.272
                C320.615,351.868,324.17,348.313,328.573,348.25z"></path>
            <rect x="339.073" y="317.695" fill="#FFFFFF" width="108.061" height="22.533"></rect>
            <path fill="#FFFFFF" d="M657.24,282.422c-1.578-1.706-3.458-3.105-5.544-4.129c-2.162-0.592-4.444-0.592-6.606,0
                c-1.346,0.213-2.655,0.61-3.894,1.18c-8.328,4.552-15.416,11.073-20.645,18.993c-3.306,4.799-7.938,8.529-13.331,10.736v-99.804
                c1.083-4.431-1.632-8.899-6.062-9.982c-4.431-1.082-8.899,1.632-9.982,6.062c-0.314,1.288-0.314,2.632,0,3.92V263.9
                c0.207,2.307-1.473,4.354-3.774,4.602c-2.343-0.122-4.143-2.12-4.021-4.462c0.002-0.047,0.005-0.093,0.009-0.14v-69.484
                c1.083-4.431-1.632-8.899-6.062-9.981c-4.431-1.083-8.899,1.631-9.982,6.062c-0.314,1.288-0.314,2.632,0,3.92v69.013
                c0.373,2.117-1.041,4.137-3.159,4.51c-2.117,0.372-4.136-1.042-4.509-3.159c-0.078-0.447-0.078-0.904,0-1.351v-61.816
                c0.939-4.463-1.918-8.843-6.381-9.781c-4.463-0.939-8.842,1.917-9.781,6.381c-0.235,1.121-0.235,2.279,0,3.4v69.721
                c0.737,2.02-0.303,4.255-2.322,4.992c-2.02,0.736-4.254-0.303-4.991-2.322c-0.315-0.862-0.315-1.808,0-2.67v-47.188
                c0.938-4.463-1.918-8.842-6.381-9.781s-8.843,1.918-9.781,6.381c-0.236,1.121-0.236,2.279,0,3.4v98.152
                c-1.186,13.88,4.937,27.377,16.162,35.627h62.524c8.877-5.241,16.299-12.623,21.588-21.471l5.309-10.382
                c5.146-12.51,12.633-23.922,22.061-33.622c2.67-2.135,5.467-4.104,8.376-5.898c0.834-0.489,1.431-1.3,1.652-2.241
                C657.869,283.641,657.694,282.938,657.24,282.422z"></path>
            <path fill="#FFFFFF" d="M519.332,386.472h97.68c3.453,0,6.252,2.799,6.252,6.252v117.971l0,0H512.608l0,0V392.724
                c-0.01-3.453,2.781-6.26,6.234-6.27C519.006,386.454,519.169,386.46,519.332,386.472z">
            </path>
            <rect x="527.354" y="363.114" fill="#FFFFFF" width="82.698" height="17.224"></rect>
            <path fill="#FFFFFF" d="M304.508,320.173c-1.309-1.415-2.869-2.575-4.602-3.421c-1.851-0.524-3.812-0.524-5.662,0l-3.186,0.943
                c-6.955,3.823-12.869,9.291-17.224,15.927c-2.748,4.048-6.654,7.173-11.207,8.966v-83.76c0.419-4.117-2.505-7.824-6.606-8.376
                c-4.149,0.493-7.14,4.218-6.725,8.376v45.536c0.135,1.95-1.337,3.641-3.287,3.774c-0.005,0.001-0.011,0.001-0.016,0.001
                c-1.909-0.187-3.322-1.861-3.186-3.775v-57.688c0.352-4.139-2.607-7.824-6.725-8.376c-4.116,0.552-7.075,4.237-6.724,8.376v57.688
                c0.343,1.792-0.831,3.523-2.623,3.866c-1.792,0.344-3.522-0.831-3.865-2.623c-0.079-0.41-0.079-0.832,0-1.243v-51.671
                c0.412-4.134-2.593-7.824-6.725-8.258c-4.1,0.493-7.071,4.144-6.725,8.258v57.688c0.001,1.759-1.425,3.186-3.184,3.187
                s-3.186-1.425-3.187-3.184c0-0.001,0-0.002,0-0.003v-39.049c0.352-4.139-2.607-7.824-6.725-8.376
                c-4.149,0.493-7.139,4.218-6.725,8.376v82.58c-1.079,11.861,4.222,23.405,13.921,30.318h52.144
                c7.469-4.531,13.645-10.91,17.931-18.521l4.483-8.612c4.286-10.447,10.533-19.979,18.403-28.077c2.212-1.854,4.58-3.511,7.078-4.954
                c0.715-0.38,1.199-1.085,1.298-1.888C305.219,321.508,305.073,320.68,304.508,320.173z">
            </path>
            <path fill="#FFFFFF" d="M189.368,406.999h81.518c2.867,0,5.19,2.324,5.19,5.191v98.859l0,0h-91.898l0,0V412.19
                C184.178,409.323,186.501,406.999,189.368,406.999z"></path>
            <rect x="195.975" y="387.534" fill="#FFFFFF" width="69.013" height="14.393"></rect>
        </svg>