<svg height="210" width="800"><path class="leaflet-interactive" stroke="#18a0fb" stroke-opacity="1" stroke-width="2" stroke-linecap="round" stroke-linejoin="round" fill="#18a0fb" fill-opacity="1" fill-rule="evenodd" d="M106 135L108 138L109 135L116 136L122 132L123 133L131 130L139 134L143 141L148 145L147 139L151 137L153 133L152 131L154 131L159 126L160 121L168 117L169 114L174 109L176 103L180 102L183 95L186 93L189 87L192 86L193 83L197 85L195 80L197 80L198 78L194 73L194 69L188 60L189 58L186 57L180 64L177 60L174 60L173 62L170 60L164 61L145 55L130 56L127 58L124 61L126 69L125 72L123 77L120 77L119 80L120 91L117 100L116 102L114 102L112 106L110 106L108 111L108 117L106 121L109 127L106 133L107 135z"></path></svg>